<svg xmlns="http://www.w3.org/2000/svg" xmlns:xlink="http://www.w3.org/1999/xlink" clip-rule="evenodd" fill-rule="evenodd" height="2.667in" viewBox="0 0 2.66666 2.66666" width="2.667in"><linearGradient id="id0" gradientUnits="userSpaceOnUse" x1="-.088" x2="2.755" y1="1.721" y2=".946"><stop offset="0" stop-color="#0cf"></stop><stop offset="1" stop-color="#00f"></stop></linearGradient><g id="Layer_x0020_1"><circle cx="1.333" cy="1.333" fill="url(#id0)" r="1.333"></circle><g id="_462595624"><g><g id="_462595264"><path id="_247474648" d="m1.83381 2.18658h-1.00097c-.0283189 0-.0513543-.0230394-.0513543-.0513583v-.907654c0-.0283189.0230354-.0513543.0513543-.0513543h1.00097c.0283189 0 .0513543.0230354.0513543.0513543v.907654c0 .0283189-.0230354.0513583-.0513543.0513583zm-1.00097-.967039c-.00435039 0-.00802362.00367717-.00802362.00802756v.907654c0 .00435433.00367323.0080315.00802362.0080315l1.00097-.00000394c.00435433 0 .00802756-.00367717.00802756-.00802756v-.907654c0-.00435039-.00367717-.00802756-.00802362-.00802756h-1.00097z" fill="#fefefe"></path></g><g id="_462595600"><path id="_247474000" d="m1.69385 1.21954h-.721035c-.0119646 0-.0216614-.00969685-.0216614-.0216614v-.348067c-.00000394-.203878.165858-.36974.369732-.36974h.0248976c.203874 0 .369736.165862.369736.36974v.348067c-.00000394.0119646-.00970472.0216614-.0216693.0216614zm-.699374-.0433268h.677709v-.326402c0-.179984-.146425-.326409-.326406-.326409l-.0248976-.00000394c-.17998 0-.326406.146429-.326406.326409v.326406z" fill="#fefefe"></path></g><g id="_462595480"><path id="_247473976" d="m1.72914 1.99937h-.79161c-.0219803 0-.0398583-.017878-.0398583-.0398583v-.55622c0-.0219764.017878-.0398543.0398583-.0398543h.79161c.0219724 0 .0398504.017878.0398504.0398543v.55622c0 .0219803-.017878.0398583-.0398504.0398583zm-.788138-.0433268h.784661v-.549276h-.784661z" fill="#fefefe"></path></g><g><g id="_462595360"><path id="_247474384" d="m1.10728 1.85037c-.0272717 0-.053252-.0117323-.0712874-.0321811-.00790945-.00897244-.00705118-.0226693.0019252-.0305827.00897638-.00791339.0226654-.00704331.0305787.0019252.00981102.011126.0239488.0175118.0387835.0175118.0285039 0 .0516929-.023189.0516929-.0516929s-.0231929-.0516929-.0516929-.0516929c-.0523976 0-.0950236-.042626-.0950236-.0950197s.0426299-.0950197.0950236-.0950197c.027437 0 .0535276.0118622.0715906.0325394.00787402.00901181.00694488.0227008-.00206693.0305709-.00900787.00786614-.0226929.00694488-.0305669-.00206299-.00983071-.0112598-.0240276-.0177165-.0389567-.0177165-.0285039 0-.0516929.023189-.0516929.0516929s.023189.051689.0516929.051689c.0523976 0 .0950236.042626.0950236.0950236 0 .0523937-.0426299.0950157-.0950236.0950157z" fill="#fefefe"></path></g><g id="_462595648"><path id="_247474264" d="m1.34661 1.85037c-.0272638 0-.0532441-.0117323-.0712756-.0321811-.00791339-.00897638-.00705512-.0226693.0019252-.0305827.00897638-.00791339.0226693-.00704331.0305787.0019252.00980709.011126.0239409.0175118.0387717.0175118.0285039 0 .0516969-.023189.0516969-.0516929s-.0231929-.0516929-.0516969-.0516929c-.0523937 0-.0950157-.042626-.0950157-.0950197s.042622-.0950197.0950157-.0950197c.0274409 0 .0535394.0118622.0715945.0325433.00787402.00900787.00694882.0226969-.00206299.0305669-.00900787.00787008-.0227008.00694488-.0305669-.00206693-.00983465-.0112559-.0240354-.0177126-.0389646-.0177126-.0284961 0-.051685.023189-.051685.0516929s.023189.0516929.051685.0516929c.0523976 0 .0950236.042626.0950236.0950197s-.042626.0950157-.0950236.0950157z" fill="#fefefe"></path></g><g id="_462595312"><path id="_247473256" d="m1.63273 1.85038h-.120118c-.0119646 0-.0216654-.00969685-.0216654-.0216654v-.29463c0-.0119646.00970079-.0216654.0216654-.0216654.0119685 0 .0216654.00970079.0216654.0216654v.272965h.0984528c.0119685 0 .0216654.00970079.0216654.0216654 0 .0119685-.00970079.0216654-.0216654.0216654z" fill="#fefefe"></path></g></g></g></g></g></svg>